<svg width="139" height="37" viewBox="0 0 139 37" fill="none" xmlns="http://www.w3.org/2000/svg">
<path d="M47.5962 28.1685C48.9908 28.856 50.6604 29.1997 52.605 29.1997C54.6478 29.1997 56.4058 28.8167 57.879 28.0506C59.3522 27.2846 60.5111 26.2632 61.3557 24.9864C62.2004 23.7097 62.7209 22.3052 62.9173 20.7731H58.704C58.4683 22.207 57.7906 23.3266 56.671 24.132C55.571 24.9177 54.2157 25.3105 52.605 25.3105C51.505 25.3105 50.5327 25.1239 49.6881 24.7507C48.8631 24.3775 48.1658 23.857 47.5962 23.1891C47.0266 22.5017 46.5944 21.7061 46.2998 20.8026C46.0248 19.899 45.8873 18.9169 45.8873 17.8562C45.8873 16.7562 46.0248 15.7545 46.2998 14.8509C46.5944 13.9474 47.0167 13.1617 47.5667 12.4938C48.1167 11.826 48.8042 11.3153 49.6292 10.9617C50.4542 10.5885 51.397 10.4019 52.4577 10.4019C53.4988 10.4019 54.4318 10.5787 55.2568 10.9322C56.0817 11.2662 56.7594 11.7769 57.2897 12.4644C57.8397 13.1322 58.1933 13.9572 58.3504 14.9393H62.5637C62.387 13.2501 61.8664 11.7769 61.0022 10.5198C60.1379 9.243 58.979 8.26087 57.5255 7.57339C56.0916 6.86626 54.4023 6.5127 52.4577 6.5127C50.5917 6.5127 48.9712 6.8368 47.5962 7.485C46.2409 8.11355 45.1212 8.95818 44.2373 10.0189C43.3534 11.0796 42.6954 12.2581 42.2633 13.5545C41.8508 14.8509 41.6445 16.167 41.6445 17.5026V18.1509C41.6445 19.349 41.8508 20.5963 42.2633 21.8927C42.6758 23.1891 43.3141 24.3873 44.1784 25.4873C45.0623 26.5873 46.2016 27.481 47.5962 28.1685Z" fill="#BABABA"/>
<path fill-rule="evenodd" clip-rule="evenodd" d="M73.8433 26.6953C74.0457 26.352 74.2127 25.9732 74.3442 25.5589V28.6399H77.5852V18.7107C77.5852 17.2178 77.3003 16.0098 76.7307 15.0866C76.1807 14.1634 75.3557 13.4858 74.2558 13.0536C73.1754 12.6215 71.8103 12.4054 70.1603 12.4054C69.63 12.4054 69.0603 12.4153 68.4514 12.4349C67.8621 12.4349 67.2827 12.4545 66.7131 12.4938C66.1434 12.5331 65.6327 12.5724 65.181 12.6117V16.0884C65.7309 16.0491 66.3497 16.0196 67.0372 16C67.7443 15.9607 68.4416 15.9313 69.1291 15.9116C69.8166 15.892 70.4058 15.8821 70.8969 15.8821C71.8397 15.8821 72.537 16.108 72.9888 16.5598C73.4406 17.0116 73.6665 17.6991 73.6665 18.6223V18.7696H70.396C68.9818 18.7696 67.7443 18.9562 66.6836 19.3294C65.6425 19.7026 64.8274 20.2624 64.2381 21.0088C63.6685 21.7552 63.3837 22.7177 63.3837 23.8963C63.3837 24.9766 63.6194 25.8998 64.0908 26.6659C64.5819 27.4319 65.2595 28.0212 66.1238 28.4337C67.0077 28.8462 68.0291 29.0524 69.188 29.0524C70.3076 29.0524 71.2505 28.856 72.0165 28.4631C72.8022 28.0506 73.4111 27.4614 73.8433 26.6953ZM73.1067 24.7802C73.4406 24.2695 73.6272 23.582 73.6665 22.7177V21.2151H70.3371C69.3943 21.2151 68.6675 21.4508 68.1568 21.9222C67.6657 22.374 67.4202 22.9633 67.4202 23.69C67.4202 24.4168 67.6657 25.0061 68.1568 25.4578C68.6675 25.9096 69.3943 26.1355 70.3371 26.1355C70.9067 26.1355 71.4273 26.0373 71.8987 25.8409C72.3897 25.6248 72.7924 25.2712 73.1067 24.7802Z" fill="#BABABA"/>
<path d="M87.5996 29.1997C86.205 29.1997 84.997 28.964 83.9756 28.4926C82.9738 28.0212 82.1292 27.3926 81.4417 26.6069C80.7738 25.8212 80.273 24.9373 79.939 23.9552C79.6051 22.9731 79.4381 21.9713 79.4381 20.9499V20.3901C79.4381 19.3098 79.6051 18.2785 79.939 17.2964C80.2926 16.2946 80.8131 15.4107 81.5006 14.6447C82.1881 13.859 83.0327 13.2402 84.0345 12.7885C85.0559 12.317 86.2344 12.0813 87.5701 12.0813C88.9647 12.0813 90.212 12.3563 91.312 12.9063C92.412 13.4367 93.2861 14.1831 93.9343 15.1456C94.6021 16.108 94.9753 17.2277 95.0539 18.5044H91.0763C90.9781 17.6794 90.6245 16.9919 90.0156 16.442C89.4263 15.892 88.6112 15.617 87.5701 15.617C86.6666 15.617 85.9103 15.833 85.3014 16.2652C84.7121 16.6973 84.2702 17.2964 83.9756 18.0625C83.6809 18.8089 83.5336 19.6731 83.5336 20.6553C83.5336 21.5981 83.6711 22.4525 83.9461 23.2186C84.2407 23.9847 84.6827 24.5838 85.272 25.0159C85.8809 25.448 86.6567 25.6641 87.5996 25.6641C88.3067 25.6641 88.9156 25.5364 89.4263 25.2811C89.937 25.0257 90.3397 24.6721 90.6343 24.2204C90.9486 23.7686 91.145 23.2579 91.2236 22.6883H95.2012C95.1226 23.9847 94.7396 25.1239 94.0521 26.106C93.3843 27.0685 92.4906 27.8248 91.3709 28.3747C90.271 28.9247 89.0138 29.1997 87.5996 29.1997Z" fill="#BABABA"/>
<path d="M100.309 28.2864C101.271 28.6596 102.489 28.8462 103.962 28.8462H106.26V25.34H103.756C102.97 25.34 102.361 25.1337 101.929 24.7213C101.517 24.2891 101.311 23.6802 101.311 22.8945L101.325 15.6464H106.26V12.6411H101.331L101.34 8.1332H97.5097L97.5006 12.6411H94.9464V15.6464H97.4945L97.4803 22.6293C97.4803 24.1811 97.716 25.4186 98.1874 26.3418C98.6588 27.2453 99.366 27.8935 100.309 28.2864Z" fill="#BABABA"/>
<path d="M113.675 29.1408C111.829 29.1408 110.395 28.5319 109.374 27.3141C108.372 26.0962 107.871 24.2891 107.871 21.8927V12.6117H111.967V22.2463C111.967 23.2284 112.242 24.0141 112.791 24.6034C113.341 25.173 114.088 25.4578 115.031 25.4578C115.974 25.4578 116.74 25.1534 117.329 24.5445C117.938 23.9356 118.242 23.1106 118.242 22.0695V12.6117H122.338V28.6399H119.097V24.9143C119.014 25.2532 118.916 25.5719 118.802 25.8703C118.39 26.9507 117.771 27.7658 116.946 28.3158C116.121 28.8658 115.09 29.1408 113.852 29.1408H113.675Z" fill="#BABABA"/>
<path d="M126.188 27.756C127.445 28.6792 129.173 29.1408 131.373 29.1408C132.788 29.1408 134.015 28.9247 135.056 28.4926C136.097 28.0605 136.903 27.4614 137.472 26.6953C138.062 25.9096 138.356 24.9864 138.356 23.9257C138.356 22.4918 137.816 21.3526 136.736 20.5079C135.675 19.6633 134.202 19.1428 132.316 18.9464L130.902 18.7991C130.038 18.7008 129.409 18.5142 129.016 18.2392C128.643 17.9642 128.456 17.5714 128.456 17.0607C128.456 16.5303 128.692 16.0982 129.164 15.7643C129.635 15.4304 130.303 15.2634 131.167 15.2634C132.13 15.2634 132.866 15.4598 133.377 15.8527C133.888 16.2455 134.163 16.717 134.202 17.2669H137.885C137.826 15.5973 137.188 14.3304 135.97 13.4661C134.752 12.6019 133.161 12.1697 131.197 12.1697C129.939 12.1697 128.82 12.3661 127.838 12.759C126.875 13.1322 126.119 13.692 125.569 14.4384C125.019 15.1848 124.744 16.108 124.744 17.208C124.744 18.583 125.225 19.683 126.188 20.5079C127.15 21.3329 128.525 21.8436 130.313 22.0401L131.727 22.1874C132.788 22.2856 133.534 22.4918 133.966 22.8061C134.418 23.1204 134.644 23.5427 134.644 24.073C134.644 24.682 134.349 25.1632 133.76 25.5168C133.19 25.8703 132.414 26.0471 131.432 26.0471C130.254 26.0471 129.39 25.8212 128.84 25.3695C128.29 24.9177 127.985 24.4168 127.926 23.8668H124.243C124.302 25.5168 124.95 26.8132 126.188 27.756Z" fill="#BABABA"/>
<path fill-rule="evenodd" clip-rule="evenodd" d="M18.4228 0.727539C8.66024 0.727539 0.746094 8.64168 0.746094 18.4043C0.746094 28.1669 8.66024 36.081 18.4228 36.081C28.1854 36.081 36.0996 28.1669 36.0996 18.4043C36.0996 8.64168 28.1854 0.727539 18.4228 0.727539ZM4.70981 18.4043C4.70981 10.8308 10.8493 4.69125 18.4228 4.69125C25.9963 4.69125 32.1358 10.8308 32.1358 18.4043C32.1358 25.316 27.0224 31.0334 20.3721 31.9798V28.955L23.8918 27.6556C25.9259 26.9047 27.2768 24.966 27.2768 22.7977V16.8419C27.2768 15.7474 26.3895 14.8601 25.295 14.8601C24.2004 14.8601 23.3131 15.7474 23.3131 16.8419V22.7977C23.3131 23.3063 22.9963 23.7611 22.5191 23.9372L20.3721 24.7298V9.04246C20.3721 7.94791 19.4848 7.0606 18.3903 7.0606C17.2957 7.0606 16.4084 7.94791 16.4084 9.04246V17.546L14.3255 16.7771C13.8484 16.6009 13.5315 16.1462 13.5315 15.6375V13.0701C13.5315 11.9756 12.6442 11.0882 11.5497 11.0882C10.4551 11.0882 9.5678 11.9756 9.5678 13.0701V15.6375C9.5678 17.8059 10.9187 19.7446 12.9528 20.4955L16.4084 21.7711V31.9704C9.78993 30.996 4.70981 25.2934 4.70981 18.4043Z" fill="#BABABA"/>
</svg>
