<svg width="124" height="35" viewBox="0 0 124 35" fill="none" xmlns="http://www.w3.org/2000/svg">
<path d="M58.5594 21.3344V33.8799H62.6355V20.5192C62.6355 18.8283 62.2732 17.3338 61.5486 16.0354C60.8239 14.7371 59.8275 13.7256 58.5594 13.001C57.3215 12.2763 55.8873 11.914 54.2568 11.914C52.6263 11.914 51.162 12.2914 49.8636 13.0463C48.8856 13.5921 48.0704 14.2922 47.4179 15.1464V1.54248H43.3418V33.8799H47.4179V21.3344C47.4179 20.2474 47.6595 19.2813 48.1426 18.4358C48.6257 17.5904 49.2899 16.9261 50.1354 16.443C50.9808 15.96 51.947 15.7184 53.034 15.7184C54.6644 15.7184 55.9929 16.2468 57.0195 17.3036C58.0461 18.3603 58.5594 19.704 58.5594 21.3344Z" fill="#BABABA"/>
<path d="M69.7847 33.1552C71.2038 33.9403 72.8041 34.3328 74.5855 34.3328C76.3971 34.3328 77.9823 33.9403 79.341 33.1552C80.7299 32.34 81.8169 31.2228 82.6019 29.8037C83.3869 28.3846 83.7795 26.7391 83.7795 24.8671V12.3669H79.7033V24.6859C79.7033 26.4673 79.2504 27.8713 78.3446 28.8979C77.4388 29.8943 76.1858 30.3925 74.5855 30.3925C73.5287 30.3925 72.6078 30.1661 71.8228 29.7132C71.0377 29.2603 70.4339 28.6111 70.0112 27.7657C69.6186 26.8901 69.4224 25.8635 69.4224 24.6859V12.3669H65.3462V24.8671C65.3462 26.7391 65.7388 28.3846 66.5238 29.8037C67.3088 31.2228 68.3958 32.34 69.7847 33.1552Z" fill="#BABABA"/>
<path fill-rule="evenodd" clip-rule="evenodd" d="M96.942 34.3328C94.7983 34.3328 92.8659 33.8497 91.1448 32.8835C89.4238 31.8871 88.0651 30.5435 87.0687 28.8526C86.0723 27.1618 85.5741 25.2445 85.5741 23.1007C85.5741 20.9872 86.0572 19.085 87.0234 17.3941C88.0198 15.7033 89.3483 14.3748 91.009 13.4086C92.6998 12.4122 94.5869 11.914 96.6703 11.914C98.6631 11.914 100.414 12.3669 101.924 13.2727C103.464 14.1785 104.656 15.4316 105.502 17.0318C106.378 18.6321 106.815 20.4437 106.815 22.4667C106.815 22.7686 106.8 23.1007 106.77 23.4631C106.74 23.7952 106.679 24.1877 106.589 24.6406H89.7414C89.8848 25.4784 90.1412 26.2483 90.5108 26.9504C91.1146 28.0676 91.9752 28.9432 93.0923 29.5773C94.2095 30.1812 95.4927 30.4831 96.942 30.4831C98.1498 30.4831 99.2518 30.2717 100.248 29.849C101.275 29.4263 102.15 28.7923 102.875 27.9468L105.502 30.619C104.475 31.8267 103.207 32.7476 101.698 33.3817C100.218 34.0158 98.6329 34.3328 96.942 34.3328ZM90.4655 19.1152C90.127 19.7564 89.8884 20.466 89.7497 21.2438H102.843C102.731 20.3534 102.501 19.5684 102.15 18.8887C101.637 17.8622 100.912 17.0771 99.9765 16.5336C99.0405 15.9599 97.9082 15.6731 96.5797 15.6731C95.1908 15.6731 93.9679 15.975 92.9112 16.5789C91.8544 17.1828 91.0392 18.0282 90.4655 19.1152Z" fill="#BABABA"/>
<path d="M109.448 32.5212C110.354 33.0948 111.335 33.5478 112.392 33.8799C113.479 34.1818 114.626 34.3328 115.834 34.3328C118.25 34.3328 120.167 33.744 121.586 32.5665C123.035 31.3889 123.76 29.7886 123.76 27.7657C123.76 26.4371 123.473 25.3653 122.899 24.55C122.356 23.7348 121.646 23.0857 120.771 22.6026C119.895 22.1195 118.974 21.742 118.008 21.4703C117.042 21.1684 116.106 20.8815 115.2 20.6098C114.324 20.338 113.615 20.0059 113.071 19.6134C112.528 19.2209 112.256 18.6623 112.256 17.9376C112.256 17.213 112.558 16.6544 113.162 16.2619C113.796 15.8392 114.702 15.6278 115.879 15.6278C116.997 15.6278 117.993 15.8392 118.869 16.2619C119.774 16.6846 120.529 17.2885 121.133 18.0735L123.76 15.4467C122.915 14.2691 121.828 13.3935 120.499 12.8198C119.201 12.2159 117.706 11.914 116.015 11.914C114.415 11.914 113.041 12.1706 111.894 12.6839C110.777 13.1972 109.901 13.937 109.267 14.9032C108.633 15.8392 108.316 16.9563 108.316 18.2547C108.316 19.553 108.588 20.5947 109.131 21.3797C109.705 22.1647 110.429 22.7837 111.305 23.2366C112.181 23.6895 113.102 24.0669 114.068 24.3689C115.064 24.6406 116 24.9275 116.876 25.2294C117.751 25.5011 118.461 25.8635 119.004 26.3164C119.578 26.7391 119.865 27.343 119.865 28.128C119.865 28.913 119.518 29.532 118.823 29.9849C118.129 30.4076 117.148 30.619 115.879 30.619C114.611 30.619 113.464 30.3925 112.437 29.9396C111.411 29.4565 110.505 28.7319 109.72 27.7657L107.093 30.3925C107.757 31.2077 108.542 31.9173 109.448 32.5212Z" fill="#BABABA"/>
<path d="M119.945 5.14386V5.9465H118.979V8.38847H118.062V5.9465H117.096V5.14386H119.945Z" fill="#BABABA"/>
<path d="M123.711 5.09521V8.40306H122.794V6.79778L122.122 7.55178H121.848L121.176 6.79778V8.40306H120.258V5.09521H120.582L121.985 6.50591L123.388 5.09521H123.711Z" fill="#BABABA"/>
<path d="M4.25059 10.4227C5.51993 14.4926 9.84829 16.763 13.9183 15.4936C17.9882 14.2243 27.6279 7.59759 26.3586 3.52763C25.0892 -0.542343 13.3915 -0.51436 9.32157 0.754979C5.25161 2.02432 2.98125 6.35268 4.25059 10.4227Z" fill="#BABABA"/>
<path d="M1.79165 32.7398C4.18051 35.1287 8.0532 35.1287 10.4421 32.7398C12.8309 30.351 17.1559 22.1529 14.7675 19.764C12.3786 17.3753 4.18051 21.7005 1.79165 24.0892C-0.597216 26.4781 -0.597216 30.351 1.79165 32.7398Z" fill="#BABABA"/>
<path d="M24.651 35.0887C28.7691 36.1921 33.002 33.7483 34.1056 29.6302C35.2087 25.5121 34.7631 13.8231 30.645 12.7195C26.5269 11.6162 20.2963 21.5163 19.1927 25.6344C18.0892 29.7523 20.5329 33.9852 24.651 35.0887Z" fill="#BABABA"/>
</svg>
