<svg width="131" height="36" viewBox="0 0 131 36" fill="none" xmlns="http://www.w3.org/2000/svg">
<path d="M16.7715 32.0253C21.8481 31.1431 24.9654 27.5859 26.6992 22.8585H27.9946H33.5084L33.4723 23.0573C32.0885 30.5634 25.4719 35.7378 17.3467 35.7378C7.48923 35.7378 0 28.0448 0 17.9511C0.00493037 25.8377 6.40783 32.2373 14.3046 32.2373C15.1461 32.2373 15.9695 32.1646 16.7715 32.0253C12.0252 30.8564 8.41449 24.9917 8.41449 17.9326C8.41449 10.8736 12.0252 5.00892 16.7715 3.84001C15.9695 3.70073 15.1461 3.628 14.3046 3.628C6.43906 3.628 0.0575209 9.97544 0 17.827C0.0624513 7.84265 7.53031 0.262207 17.3467 0.262207C25.2681 0.262207 32.2857 5.38075 33.3753 12.5084L33.4049 12.7023H27.9124H26.3244C24.5265 8.12696 21.738 4.70323 16.7715 3.84001C12.0252 5.00892 8.41449 10.8736 8.41449 17.9326C8.41449 24.9917 12.0252 30.8564 16.7715 32.0253Z" fill="url(#paint0_linear_81_400)"/>
<path d="M14.3046 3.62817C15.1461 3.62817 15.9695 3.7009 16.7715 3.84018C12.0252 5.00909 8.41449 10.8738 8.41449 17.9328C8.41449 24.9919 12.0252 30.8565 16.7715 32.0254C15.9695 32.1647 15.1461 32.2374 14.3046 32.2374C6.40783 32.2374 0.00493037 25.8378 0 17.9513C0.0575209 10.0997 6.43906 3.62817 14.3046 3.62817Z" fill="url(#paint1_linear_81_400)"/>
<path d="M43.4572 17.624C43.4572 15.992 43.8332 14.528 44.5852 13.232C45.3532 11.936 46.3852 10.928 47.6812 10.208C48.9932 9.472 50.4252 9.104 51.9772 9.104C53.7532 9.104 55.3292 9.544 56.7052 10.424C58.0972 11.288 59.1052 12.52 59.7292 14.12H56.4412C56.0092 13.24 55.4092 12.584 54.6412 12.152C53.8732 11.72 52.9852 11.504 51.9772 11.504C50.8732 11.504 49.8892 11.752 49.0252 12.248C48.1612 12.744 47.4812 13.456 46.9852 14.384C46.5052 15.312 46.2652 16.392 46.2652 17.624C46.2652 18.856 46.5052 19.936 46.9852 20.864C47.4812 21.792 48.1612 22.512 49.0252 23.024C49.8892 23.52 50.8732 23.768 51.9772 23.768C52.9852 23.768 53.8732 23.552 54.6412 23.12C55.4092 22.688 56.0092 22.032 56.4412 21.152H59.7292C59.1052 22.752 58.0972 23.984 56.7052 24.848C55.3292 25.712 53.7532 26.144 51.9772 26.144C50.4092 26.144 48.9772 25.784 47.6812 25.064C46.3852 24.328 45.3532 23.312 44.5852 22.016C43.8332 20.72 43.4572 19.256 43.4572 17.624ZM59.6927 19.328C59.6927 18 59.9647 16.824 60.5087 15.8C61.0687 14.776 61.8207 13.984 62.7647 13.424C63.7247 12.848 64.7807 12.56 65.9327 12.56C66.9727 12.56 67.8767 12.768 68.6447 13.184C69.4287 13.584 70.0527 14.088 70.5167 14.696V12.776H73.2767V26H70.5167V24.032C70.0527 24.656 69.4207 25.176 68.6207 25.592C67.8207 26.008 66.9087 26.216 65.8847 26.216C64.7487 26.216 63.7087 25.928 62.7647 25.352C61.8207 24.76 61.0687 23.944 60.5087 22.904C59.9647 21.848 59.6927 20.656 59.6927 19.328ZM70.5167 19.376C70.5167 18.464 70.3247 17.672 69.9407 17C69.5727 16.328 69.0847 15.816 68.4767 15.464C67.8687 15.112 67.2127 14.936 66.5087 14.936C65.8047 14.936 65.1487 15.112 64.5407 15.464C63.9327 15.8 63.4367 16.304 63.0527 16.976C62.6847 17.632 62.5007 18.416 62.5007 19.328C62.5007 20.24 62.6847 21.04 63.0527 21.728C63.4367 22.416 63.9327 22.944 64.5407 23.312C65.1647 23.664 65.8207 23.84 66.5087 23.84C67.2127 23.84 67.8687 23.664 68.4767 23.312C69.0847 22.96 69.5727 22.448 69.9407 21.776C70.3247 21.088 70.5167 20.288 70.5167 19.376ZM77.2794 14.696C77.6794 14.024 78.2074 13.504 78.8634 13.136C79.5354 12.752 80.3274 12.56 81.2394 12.56V15.392H80.5434C79.4714 15.392 78.6554 15.664 78.0954 16.208C77.5514 16.752 77.2794 17.696 77.2794 19.04V26H74.5434V12.776H77.2794V14.696ZM87.1634 26.216C85.9154 26.216 84.7874 25.936 83.7794 25.376C82.7714 24.8 81.9794 24 81.4034 22.976C80.8274 21.936 80.5394 20.736 80.5394 19.376C80.5394 18.032 80.8354 16.84 81.4274 15.8C82.0194 14.76 82.8274 13.96 83.8514 13.4C84.8754 12.84 86.0194 12.56 87.2834 12.56C88.5474 12.56 89.6914 12.84 90.7154 13.4C91.7394 13.96 92.5474 14.76 93.1394 15.8C93.7314 16.84 94.0274 18.032 94.0274 19.376C94.0274 20.72 93.7234 21.912 93.1154 22.952C92.5074 23.992 91.6754 24.8 90.6194 25.376C89.5794 25.936 88.4274 26.216 87.1634 26.216ZM87.1634 23.84C87.8674 23.84 88.5234 23.672 89.1314 23.336C89.7554 23 90.2594 22.496 90.6434 21.824C91.0274 21.152 91.2194 20.336 91.2194 19.376C91.2194 18.416 91.0354 17.608 90.6674 16.952C90.2994 16.28 89.8114 15.776 89.2034 15.44C88.5954 15.104 87.9394 14.936 87.2354 14.936C86.5314 14.936 85.8754 15.104 85.2674 15.44C84.6754 15.776 84.2034 16.28 83.8514 16.952C83.4994 17.608 83.3234 18.416 83.3234 19.376C83.3234 20.8 83.6834 21.904 84.4034 22.688C85.1394 23.456 86.0594 23.84 87.1634 23.84ZM97.1411 8.24V26H94.4051V8.24H97.1411ZM99.7982 11.024C99.3022 11.024 98.8862 10.856 98.5502 10.52C98.2142 10.184 98.0462 9.768 98.0462 9.272C98.0462 8.776 98.2142 8.36 98.5502 8.024C98.8862 7.688 99.3022 7.52 99.7982 7.52C100.278 7.52 100.686 7.688 101.022 8.024C101.358 8.36 101.526 8.776 101.526 9.272C101.526 9.768 101.358 10.184 101.022 10.52C100.686 10.856 100.278 11.024 99.7982 11.024ZM101.142 12.776V26H98.4062V12.776H101.142ZM109.079 12.56C110.119 12.56 111.047 12.776 111.863 13.208C112.695 13.64 113.343 14.28 113.807 15.128C114.271 15.976 114.503 17 114.503 18.2V26H111.791V18.608C111.791 17.424 111.495 16.52 110.903 15.896C110.311 15.256 109.503 14.936 108.479 14.936C107.455 14.936 106.639 15.256 106.031 15.896C105.439 16.52 105.143 17.424 105.143 18.608V26H102.407V12.776H105.143V14.288C105.591 13.744 106.159 13.32 106.847 13.016C107.551 12.712 108.295 12.56 109.079 12.56ZM114.754 19.328C114.754 18 115.026 16.824 115.57 15.8C116.13 14.776 116.882 13.984 117.826 13.424C118.786 12.848 119.842 12.56 120.994 12.56C122.034 12.56 122.938 12.768 123.706 13.184C124.49 13.584 125.114 14.088 125.578 14.696V12.776H128.338V26H125.578V24.032C125.114 24.656 124.482 25.176 123.682 25.592C122.882 26.008 121.97 26.216 120.946 26.216C119.81 26.216 118.77 25.928 117.826 25.352C116.882 24.76 116.13 23.944 115.57 22.904C115.026 21.848 114.754 20.656 114.754 19.328ZM125.578 19.376C125.578 18.464 125.386 17.672 125.002 17C124.634 16.328 124.146 15.816 123.538 15.464C122.93 15.112 122.274 14.936 121.57 14.936C120.866 14.936 120.21 15.112 119.602 15.464C118.994 15.8 118.498 16.304 118.114 16.976C117.746 17.632 117.562 18.416 117.562 19.328C117.562 20.24 117.746 21.04 118.114 21.728C118.498 22.416 118.994 22.944 119.602 23.312C120.226 23.664 120.882 23.84 121.57 23.84C122.274 23.84 122.93 23.664 123.538 23.312C124.146 22.96 124.634 22.448 125.002 21.776C125.386 21.088 125.578 20.288 125.578 19.376Z" fill="white"/>
<defs>
<linearGradient id="paint0_linear_81_400" x1="15.8451" y1="16.8192" x2="53.1199" y2="36.3283" gradientUnits="userSpaceOnUse">
<stop stop-color="#0084FD"/>
<stop offset="1" stop-color="#BD00FF"/>
</linearGradient>
<linearGradient id="paint1_linear_81_400" x1="8.38573" y1="-16.1904" x2="8.38573" y2="17.9191" gradientUnits="userSpaceOnUse">
<stop stop-color="#0084FD"/>
<stop offset="1" stop-color="#BD00FF"/>
</linearGradient>
</defs>
</svg>
