<svg width="174" height="36" viewBox="0 0 174 36" fill="none" xmlns="http://www.w3.org/2000/svg">
<path d="M21.2886 4.7209H9.19734V0.942383H21.2886C25.4622 0.942383 28.8456 4.32578 28.8456 8.49941V20.5906H25.0671V8.49941C25.0671 6.41259 23.3754 4.7209 21.2886 4.7209Z" fill="#BABABA"/>
<path d="M7.68593 25.8806H19.7772V29.6591H7.68593C3.5123 29.6591 0.128906 26.2757 0.128906 22.1021L0.128907 10.0108H3.90742L3.90742 22.1021C3.90742 24.1889 5.59912 25.8806 7.68593 25.8806Z" fill="#BABABA"/>
<path fill-rule="evenodd" clip-rule="evenodd" d="M22.0443 15.3007C22.0443 19.4744 18.6609 22.8578 14.4873 22.8578C10.3136 22.8578 6.93023 19.4744 6.93023 15.3007C6.93023 11.1271 10.3136 7.74371 14.4873 7.74371C18.6609 7.74371 22.0443 11.1271 22.0443 15.3007ZM18.2658 15.3007C18.2658 17.3875 16.5741 19.0792 14.4873 19.0792C12.4004 19.0792 10.7087 17.3875 10.7087 15.3007C10.7087 13.2139 12.4004 11.5222 14.4873 11.5222C16.5741 11.5222 18.2658 13.2139 18.2658 15.3007Z" fill="#BABABA"/>
<path d="M44.9703 27.2529C43.5391 27.2529 42.251 27.0075 41.106 26.5168C39.9611 26.0057 39.0615 25.2901 38.4072 24.37C37.7529 23.4499 37.4258 22.3765 37.4258 21.1498H41.1674C41.2492 22.0698 41.607 22.8263 42.2408 23.4193C42.8951 24.0122 43.8049 24.3087 44.9703 24.3087C46.1766 24.3087 47.1171 24.0224 47.7918 23.4499C48.4666 22.857 48.8039 22.1005 48.8039 21.1804C48.8039 20.4648 48.5892 19.8821 48.1599 19.4323C47.7509 18.9825 47.2296 18.6349 46.5958 18.3896C45.9824 18.1442 45.1237 17.8784 44.0196 17.5922C42.6293 17.2242 41.4945 16.8561 40.6153 16.4881C39.7566 16.0996 39.0206 15.5067 38.4072 14.7093C37.7938 13.9119 37.4871 12.8487 37.4871 11.5198C37.4871 10.293 37.7938 9.2196 38.4072 8.29954C39.0206 7.37947 39.8793 6.67409 40.9834 6.18339C42.0874 5.69269 43.3653 5.44734 44.817 5.44734C46.882 5.44734 48.5688 5.96871 49.8773 7.01145C51.2063 8.03374 51.9423 9.4445 52.0855 11.2437H48.2212C48.1599 10.4668 47.7918 9.80231 47.1171 9.25027C46.4424 8.69823 45.553 8.42221 44.4489 8.42221C43.4471 8.42221 42.6293 8.67779 41.9954 9.18893C41.3616 9.70008 41.0447 10.4361 41.0447 11.3971C41.0447 12.0514 41.2389 12.5932 41.6274 13.0225C42.0363 13.4314 42.5475 13.7586 43.1608 14.0039C43.7742 14.2493 44.6125 14.5151 45.6757 14.8013C47.0865 15.1898 48.2314 15.5783 49.1106 15.9667C50.0102 16.3552 50.7667 16.9584 51.3801 17.7762C52.0139 18.5736 52.3308 19.647 52.3308 20.9964C52.3308 22.0801 52.0344 23.1023 51.4414 24.0633C50.8689 25.0243 50.0204 25.8012 48.8959 26.3941C47.7918 26.9666 46.4833 27.2529 44.9703 27.2529Z" fill="#BABABA"/>
<path d="M63.4487 9.86365C64.7777 9.86365 65.9636 10.1397 67.0063 10.6917C68.0695 11.2437 68.8976 12.0616 69.4905 13.1452C70.0834 14.2288 70.3799 15.5374 70.3799 17.0708V27.0382H66.9143V17.5922C66.9143 16.0792 66.5361 14.924 65.7796 14.1266C65.0231 13.3088 63.9906 12.8999 62.682 12.8999C61.3735 12.8999 60.3307 13.3088 59.5538 14.1266C58.7973 14.924 58.4191 16.0792 58.4191 17.5922V27.0382H54.9228V10.1397H58.4191V12.0718C58.9915 11.3766 59.7174 10.8348 60.5965 10.4464C61.4962 10.0579 62.4469 9.86365 63.4487 9.86365Z" fill="#BABABA"/>
<path d="M72.1407 18.5122C72.1407 16.8152 72.4883 15.3125 73.1834 14.0039C73.8991 12.6954 74.86 11.6833 76.0663 10.9677C77.2931 10.2317 78.6425 9.86365 80.1146 9.86365C81.4436 9.86365 82.5988 10.1294 83.5802 10.661C84.582 11.1722 85.3794 11.8162 85.9723 12.5932V10.1397H89.4993V27.0382H85.9723V24.5233C85.3794 25.3207 84.5718 25.9852 83.5495 26.5168C82.5272 27.0484 81.3618 27.3142 80.0533 27.3142C78.6016 27.3142 77.2726 26.9462 76.0663 26.2101C74.86 25.4536 73.8991 24.4109 73.1834 23.0819C72.4883 21.7325 72.1407 20.2093 72.1407 18.5122ZM85.9723 18.5736C85.9723 17.4082 85.727 16.3961 85.2363 15.5374C84.766 14.6786 84.1424 14.0244 83.3655 13.5746C82.5885 13.1248 81.7503 12.8999 80.8506 12.8999C79.951 12.8999 79.1128 13.1248 78.3358 13.5746C77.5589 14.0039 76.925 14.648 76.4343 15.5067C75.9641 16.345 75.729 17.3468 75.729 18.5122C75.729 19.6777 75.9641 20.7 76.4343 21.5791C76.925 22.4583 77.5589 23.133 78.3358 23.6033C79.1332 24.0531 79.9715 24.278 80.8506 24.278C81.7503 24.278 82.5885 24.0531 83.3655 23.6033C84.1424 23.1535 84.766 22.4992 85.2363 21.6405C85.727 20.7613 85.9723 19.739 85.9723 18.5736Z" fill="#BABABA"/>
<path d="M96.0542 12.6238C96.6472 11.8469 97.4548 11.1926 98.4771 10.661C99.4994 10.1294 100.655 9.86365 101.943 9.86365C103.415 9.86365 104.754 10.2317 105.96 10.9677C107.187 11.6833 108.148 12.6954 108.843 14.0039C109.538 15.3125 109.886 16.8152 109.886 18.5122C109.886 20.2093 109.538 21.7325 108.843 23.0819C108.148 24.4109 107.187 25.4536 105.96 26.2101C104.754 26.9462 103.415 27.3142 101.943 27.3142C100.655 27.3142 99.5096 27.0586 98.5077 26.5475C97.5059 26.0159 96.6881 25.3616 96.0542 24.5847V35.0734H92.558V10.1397H96.0542V12.6238ZM106.328 18.5122C106.328 17.3468 106.083 16.345 105.592 15.5067C105.122 14.648 104.488 14.0039 103.691 13.5746C102.914 13.1248 102.076 12.8999 101.176 12.8999C100.297 12.8999 99.4585 13.1248 98.6611 13.5746C97.8841 14.0244 97.2503 14.6786 96.7596 15.5374C96.2894 16.3961 96.0542 17.4082 96.0542 18.5736C96.0542 19.739 96.2894 20.7613 96.7596 21.6405C97.2503 22.4992 97.8841 23.1535 98.6611 23.6033C99.4585 24.0531 100.297 24.278 101.176 24.278C102.076 24.278 102.914 24.0531 103.691 23.6033C104.488 23.133 105.122 22.4583 105.592 21.5791C106.083 20.7 106.328 19.6777 106.328 18.5122Z" fill="#BABABA"/>
<path d="M118.833 27.2529C117.402 27.2529 116.114 27.0075 114.969 26.5168C113.824 26.0057 112.924 25.2901 112.27 24.37C111.616 23.4499 111.288 22.3765 111.288 21.1498H115.03C115.112 22.0698 115.47 22.8263 116.103 23.4193C116.758 24.0122 117.668 24.3087 118.833 24.3087C120.039 24.3087 120.98 24.0224 121.655 23.4499C122.329 22.857 122.667 22.1005 122.667 21.1804C122.667 20.4648 122.452 19.8821 122.023 19.4323C121.614 18.9825 121.092 18.6349 120.458 18.3896C119.845 18.1442 118.986 17.8784 117.882 17.5922C116.492 17.2242 115.357 16.8561 114.478 16.4881C113.619 16.0996 112.883 15.5067 112.27 14.7093C111.657 13.9119 111.35 12.8487 111.35 11.5198C111.35 10.293 111.657 9.2196 112.27 8.29954C112.883 7.37947 113.742 6.67409 114.846 6.18339C115.95 5.69269 117.228 5.44734 118.68 5.44734C120.745 5.44734 122.431 5.96871 123.74 7.01145C125.069 8.03374 125.805 9.4445 125.948 11.2437H122.084C122.023 10.4668 121.655 9.80231 120.98 9.25027C120.305 8.69823 119.416 8.42221 118.312 8.42221C117.31 8.42221 116.492 8.67779 115.858 9.18893C115.224 9.70008 114.907 10.4361 114.907 11.3971C114.907 12.0514 115.102 12.5932 115.49 13.0225C115.899 13.4314 116.41 13.7586 117.024 14.0039C117.637 14.2493 118.475 14.5151 119.538 14.8013C120.949 15.1898 122.094 15.5783 122.973 15.9667C123.873 16.3552 124.629 16.9584 125.243 17.7762C125.877 18.5736 126.194 19.647 126.194 20.9964C126.194 22.0801 125.897 23.1023 125.304 24.0633C124.732 25.0243 123.883 25.8012 122.759 26.3941C121.655 26.9666 120.346 27.2529 118.833 27.2529Z" fill="#BABABA"/>
<path d="M137.526 9.86365C138.814 9.86365 139.959 10.1397 140.961 10.6917C141.983 11.2437 142.781 12.0616 143.353 13.1452C143.946 14.2288 144.243 15.5374 144.243 17.0708V27.0382H140.777V17.5922C140.777 16.0792 140.399 14.924 139.642 14.1266C138.886 13.3088 137.853 12.8999 136.545 12.8999C135.236 12.8999 134.193 13.3088 133.416 14.1266C132.66 14.924 132.282 16.0792 132.282 17.5922V27.0382H128.786V4.34326H132.282V12.1025C132.875 11.3869 133.621 10.8348 134.521 10.4464C135.441 10.0579 136.442 9.86365 137.526 9.86365Z" fill="#BABABA"/>
<path d="M154.499 27.3142C152.904 27.3142 151.462 26.9564 150.174 26.2408C148.886 25.5047 147.874 24.4824 147.138 23.1739C146.402 21.8449 146.034 20.3115 146.034 18.5736C146.034 16.8561 146.412 15.3329 147.169 14.0039C147.925 12.675 148.958 11.6527 150.266 10.9371C151.575 10.2214 153.037 9.86365 154.652 9.86365C156.267 9.86365 157.729 10.2214 159.038 10.9371C160.346 11.6527 161.379 12.675 162.135 14.0039C162.892 15.3329 163.27 16.8561 163.27 18.5736C163.27 20.291 162.881 21.8143 162.105 23.1432C161.328 24.4722 160.264 25.5047 158.915 26.2408C157.586 26.9564 156.114 27.3142 154.499 27.3142ZM154.499 24.278C155.398 24.278 156.237 24.0633 157.014 23.6339C157.811 23.2046 158.455 22.5605 158.946 21.7018C159.436 20.8431 159.682 19.8003 159.682 18.5736C159.682 17.3468 159.447 16.3143 158.976 15.476C158.506 14.6173 157.882 13.9733 157.106 13.5439C156.329 13.1145 155.49 12.8999 154.591 12.8999C153.691 12.8999 152.853 13.1145 152.076 13.5439C151.319 13.9733 150.716 14.6173 150.266 15.476C149.817 16.3143 149.592 17.3468 149.592 18.5736C149.592 20.3933 150.052 21.804 150.972 22.8059C151.912 23.7873 153.088 24.278 154.499 24.278Z" fill="#BABABA"/>
<path d="M169.272 12.9919V22.3458C169.272 22.9797 169.415 23.4397 169.701 23.7259C170.008 23.9917 170.519 24.1246 171.234 24.1246H173.381V27.0382H170.621C169.047 27.0382 167.84 26.6701 167.002 25.9341C166.164 25.198 165.745 24.002 165.745 22.3458V12.9919H163.751V10.1397H165.745V5.93804H169.272V10.1397H173.381V12.9919H169.272Z" fill="#BABABA"/>
</svg>
