<svg width="121" height="34" viewBox="0 0 121 34" fill="none" xmlns="http://www.w3.org/2000/svg">
<path d="M45.411 6.86865H49.6835L45.0276 26.9069H37.5133L32.8574 6.86865H37.1303L40.6077 23.3707H41.9336L45.411 6.86865Z" fill="#BABABA"/>
<path d="M53.7575 21.2193C53.777 22.123 54.0127 22.7811 54.4646 23.1937C54.936 23.5866 55.6039 23.7831 56.4685 23.7831C58.2954 23.7831 59.926 23.7241 61.3601 23.6062L62.1852 23.5179L62.2442 26.4353C59.985 26.9853 57.9417 27.2604 56.1148 27.2604C53.895 27.2604 52.284 26.671 51.2822 25.4922C50.2801 24.3135 49.7793 22.3981 49.7793 19.746C49.7793 14.4614 51.9501 11.8191 56.2915 11.8191C60.5741 11.8191 62.7156 14.039 62.7156 18.4788L62.4209 21.2193H53.7575ZM58.8258 18.2136C58.8258 17.0349 58.6393 16.2196 58.266 15.7678C57.8928 15.2963 57.2346 15.0606 56.2915 15.0606C55.3682 15.0606 54.7101 15.3061 54.3172 15.7973C53.9439 16.2687 53.7477 17.0742 53.7278 18.2136H58.8258Z" fill="#BABABA"/>
<path d="M64.9492 26.9067V12.1727H68.8684V13.7345C70.5186 12.7522 72.0902 12.1138 73.5833 11.8191V15.7973C71.9918 16.1312 70.6265 16.475 69.4871 16.8286L68.8977 17.0349V26.9067H64.9492Z" fill="#BABABA"/>
<path d="M83.4857 15.5318H79.8612V21.5727C79.8612 22.1621 79.871 22.5844 79.8909 22.8398C79.93 23.0756 80.0382 23.2819 80.2149 23.4587C80.4115 23.6355 80.7059 23.7239 81.099 23.7239L83.3386 23.6649L83.5153 26.8181C82.199 27.1128 81.1971 27.2602 80.5096 27.2602C78.7414 27.2602 77.5332 26.867 76.8851 26.0814C76.2367 25.2758 75.9127 23.8024 75.9127 21.6611V15.5318H74.1738V12.1725H75.9127V8.07642H79.8612V12.1725H83.4857V15.5318Z" fill="#BABABA"/>
<path d="M85.4688 26.9066V12.1726H89.4176V26.9066H85.4688ZM85.4688 10.2867V6.27905H89.4176V10.2867H85.4688Z" fill="#BABABA"/>
<path d="M105.824 28.734C105.824 30.4236 105.176 31.6709 103.879 32.4765C102.583 33.282 100.824 33.6846 98.6045 33.6846C96.4043 33.6846 94.7049 33.3899 93.5065 32.8005C92.3277 32.2111 91.7383 31.1405 91.7383 29.5888C91.7383 28.351 92.4457 27.1819 93.8602 26.082C93.1332 25.5907 92.7697 24.8442 92.7697 23.8424C92.7697 23.4495 93.0644 22.8012 93.6538 21.8975L93.9189 21.485C92.5832 20.5223 91.9153 19.1079 91.9153 17.2416C91.9153 15.3556 92.475 13.9903 93.5948 13.1455C94.7342 12.3008 96.2371 11.8784 98.1034 11.8784C98.9481 11.8784 99.7833 11.9766 100.608 12.1731L101.08 12.2615L105.824 12.1141V15.2672L103.614 15.0904C104.046 15.7584 104.262 16.4263 104.262 17.0942C104.262 19.0587 103.761 20.4143 102.759 21.1608C101.758 21.9073 100.186 22.2806 98.0444 22.2806C97.5926 22.2806 97.1899 22.2413 96.8362 22.1627C96.64 22.6735 96.5415 23.0958 96.5415 23.4298C96.5415 23.7442 96.7088 23.9602 97.0426 24.0781C97.3764 24.196 98.1624 24.2648 99.3999 24.2844C101.875 24.304 103.565 24.638 104.469 25.2862C105.372 25.9151 105.824 27.0642 105.824 28.734ZM95.6281 29.1761C95.6281 30.0207 96.6595 30.4432 98.7222 30.4432C100.805 30.4432 101.846 29.9519 101.846 28.9697C101.846 28.4393 101.669 28.0957 101.315 27.9386C100.962 27.801 100.215 27.7224 99.0759 27.7026L96.4238 27.4965C95.8934 28.0269 95.6281 28.5867 95.6281 29.1761ZM95.8638 17.1237C95.8638 18.5578 96.6103 19.2748 98.1034 19.2748C99.616 19.2748 100.372 18.5578 100.372 17.1237C100.372 15.6699 99.616 14.9431 98.1034 14.9431C96.6103 14.9431 95.8638 15.6699 95.8638 17.1237Z" fill="#BABABA"/>
<path d="M108.425 13.8524C109.466 12.4968 111.205 11.8191 113.641 11.8191C116.077 11.8191 117.816 12.4968 118.856 13.8524C119.898 15.1883 120.418 17.0742 120.418 19.5102C120.418 24.6769 118.159 27.2604 113.641 27.2604C109.122 27.2604 106.863 24.6769 106.863 19.5102C106.863 17.0742 107.384 15.1883 108.425 13.8524ZM111.46 22.8401C111.873 23.5473 112.6 23.9009 113.641 23.9009C114.682 23.9009 115.399 23.5473 115.792 22.8401C116.204 22.1329 116.411 21.0229 116.411 19.5102C116.411 17.9975 116.204 16.8974 115.792 16.2098C115.399 15.5222 114.682 15.1784 113.641 15.1784C112.6 15.1784 111.873 15.5222 111.46 16.2098C111.067 16.8974 110.871 17.9975 110.871 19.5102C110.871 21.0229 111.067 22.1329 111.46 22.8401Z" fill="#BABABA"/>
<path fill-rule="evenodd" clip-rule="evenodd" d="M17.8811 5.74474C16.1165 5.01379 14.2074 4.69861 12.3015 4.82351C10.3956 4.94845 8.54395 5.51013 6.88983 6.46512L5.22089 7.42868L3.29377 4.09082L4.96271 3.12726C7.12882 1.87668 9.55358 1.14111 12.0494 0.977546C14.5453 0.813949 17.0453 1.22671 19.3561 2.18386C21.6669 3.14105 23.7265 4.61696 25.3757 6.49747C27.0248 8.37795 28.2193 10.6126 28.8668 13.0286C29.514 15.4446 29.597 17.9771 29.109 20.4302C28.621 22.8834 27.5753 25.1914 26.0526 27.1757C24.5299 29.1601 22.5713 30.7676 20.328 31.8738C18.0848 32.9799 15.1913 33.5554 13.1159 33.5554C11.0405 33.5554 9.8286 33.2441 8.23713 32.585C6.69039 31.9443 5.28502 31.0054 4.10117 29.8215C2.91736 28.6377 1.97832 27.2321 1.33763 25.6853C0.696962 24.1387 0.367188 22.4809 0.367188 20.8068C0.367188 19.1326 0.696962 17.4748 1.33763 15.9281C1.97832 14.3813 2.91736 12.9759 4.10117 11.7921C5.28502 10.6083 6.69039 9.66924 8.23713 9.02857C9.78386 8.38788 11.4417 8.05814 13.1158 8.05814C14.79 8.05814 16.4478 8.38788 17.9945 9.02857C19.5412 9.66924 20.9467 10.6083 22.1305 11.7921C23.3143 12.9759 24.2533 14.3813 24.894 15.9281C25.1697 16.5934 25.3876 17.2793 25.5468 17.9781C25.6245 16.6514 25.4896 15.317 25.1439 14.0262C24.6494 12.1812 23.7373 10.4747 22.4779 9.03874C21.2186 7.60271 19.6458 6.47565 17.8811 5.74474ZM5.41843 25.2632C5.63703 21.1197 9.06605 17.8272 13.2641 17.8272C17.2998 17.8272 20.6249 20.8701 21.0701 24.7867C21.1645 24.5981 21.2522 24.4059 21.3332 24.2105C21.7802 23.1314 22.0102 21.9748 22.0102 20.8068C22.0102 19.6388 21.7802 18.4822 21.3332 17.403C20.8862 16.3239 20.231 15.3434 19.4051 14.5175C18.5792 13.6915 17.5987 13.0364 16.5196 12.5894C15.4405 12.1424 14.2839 11.9124 13.1158 11.9124C11.9478 11.9124 10.7912 12.1424 9.71208 12.5894C8.63299 13.0364 7.65247 13.6915 6.82653 14.5175C6.00063 15.3434 5.34547 16.3239 4.89847 17.403C4.45149 18.4822 4.22142 19.6387 4.22142 20.8068C4.22142 21.9748 4.45149 23.1314 4.89847 24.2105C5.04875 24.5733 5.22252 24.9249 5.41843 25.2632ZM17.2665 25.6839C17.2665 27.8944 15.4746 29.6863 13.2641 29.6863C11.0536 29.6863 9.26158 27.8944 9.26158 25.6839C9.26158 23.4734 11.0536 21.6814 13.2641 21.6814C15.4746 21.6814 17.2665 23.4734 17.2665 25.6839Z" fill="#BABABA"/>
</svg>
