<svg width="131" height="37" viewBox="0 0 131 37" fill="none" xmlns="http://www.w3.org/2000/svg">
<path d="M74.0357 27.644V6.63965H77.8415V27.644H74.0357Z" fill="#BABABA"/>
<path d="M41.8203 7.22068L49.8676 27.644H53.0052L61.1397 7.22068H56.9272L51.4839 21.5599L46.0909 7.22068H41.8203Z" fill="#BABABA"/>
<path fill-rule="evenodd" clip-rule="evenodd" d="M61.708 26.9758C62.8507 27.615 64.129 27.9345 65.5428 27.9345C66.9567 27.9345 68.2253 27.615 69.3486 26.9758C70.4913 26.3173 71.3919 25.4361 72.0504 24.3321C72.7089 23.2088 73.0382 21.9596 73.0382 20.5845C73.0382 19.2094 72.7089 17.9795 72.0504 16.8949C71.3919 15.7909 70.4913 14.9194 69.3486 14.2802C68.2253 13.6217 66.947 13.2925 65.5138 13.2925C64.1193 13.2925 62.8507 13.6217 61.708 14.2802C60.5653 14.9194 59.6647 15.7909 59.0062 16.8949C58.3477 17.9795 58.0184 19.2094 58.0184 20.5845C58.0184 21.9596 58.3477 23.2088 59.0062 24.3321C59.6841 25.4361 60.5847 26.3173 61.708 26.9758ZM67.4021 23.9254C66.8599 24.2353 66.2304 24.3902 65.5138 24.3902C64.8165 24.3902 64.1968 24.2353 63.6545 23.9254C63.1122 23.5962 62.6861 23.1507 62.3762 22.589C62.0663 22.008 61.9114 21.3495 61.9114 20.6135C61.9114 19.8775 62.0663 19.2287 62.3762 18.6671C62.6861 18.1054 63.1122 17.6696 63.6545 17.3597C64.1968 17.0305 64.8165 16.8658 65.5138 16.8658C66.2304 16.8658 66.8599 17.0305 67.4021 17.3597C67.9444 17.6696 68.3705 18.1054 68.6804 18.6671C68.9903 19.2287 69.1452 19.8775 69.1452 20.6135C69.1452 21.3495 68.9903 22.008 68.6804 22.589C68.3899 23.1507 67.9638 23.5962 67.4021 23.9254Z" fill="#BABABA"/>
<path d="M82.4337 27.1501C83.4021 27.6731 84.506 27.9345 85.7456 27.9345C86.9851 27.9345 88.0794 27.6828 89.0284 27.1792C89.9968 26.6563 90.7425 25.93 91.2654 25.0003C91.8077 24.0707 92.0788 22.9861 92.0788 21.7465V13.6121H88.2731V21.6594C88.2731 22.5309 88.0503 23.2088 87.6049 23.693C87.1594 24.1772 86.5396 24.4193 85.7456 24.4193C85.2226 24.4193 84.7675 24.3128 84.3801 24.0997C83.9928 23.8867 83.7023 23.5768 83.5086 23.1701C83.3149 22.744 83.2181 22.2404 83.2181 21.6594V13.6121H79.3833V21.7465C79.3833 22.9667 79.6544 24.0416 80.1967 24.9713C80.739 25.9009 81.4847 26.6272 82.4337 27.1501Z" fill="#BABABA"/>
<path d="M93.6569 27.644V13.6121H97.4627V14.8295C97.8031 14.4971 98.1905 14.2172 98.6248 13.9897C99.4382 13.5443 100.358 13.3215 101.385 13.3215C102.353 13.3215 103.234 13.5443 104.028 13.9897C104.694 14.3468 105.244 14.8331 105.678 15.4486C106.147 14.8496 106.721 14.373 107.398 14.0188C108.251 13.554 109.2 13.3215 110.245 13.3215C111.291 13.3215 112.231 13.5443 113.063 13.9897C113.896 14.4158 114.555 15.0356 115.039 15.849C115.523 16.6625 115.765 17.6309 115.765 18.7542V27.644H111.96V19.3643C111.96 18.5508 111.698 17.9214 111.175 17.4759C110.672 17.0111 110.042 16.7787 109.287 16.7787C108.803 16.7787 108.347 16.8852 107.921 17.0983C107.515 17.2919 107.195 17.5825 106.963 17.9698C106.73 18.3572 106.614 18.822 106.614 19.3643V27.644H102.808V19.3643C102.808 18.5508 102.547 17.9214 102.024 17.4759C101.52 17.0111 100.891 16.7787 100.135 16.7787C99.6319 16.7787 99.1768 16.8852 98.77 17.0983C98.3633 17.2919 98.0437 17.5825 97.8113 17.9698C97.5789 18.3572 97.4627 18.822 97.4627 19.3643V27.644H93.6569Z" fill="#BABABA"/>
<path fill-rule="evenodd" clip-rule="evenodd" d="M120.187 27.0049C121.329 27.6247 122.637 27.9345 124.109 27.9345C125.251 27.9345 126.307 27.7312 127.275 27.3245C128.263 26.9177 129.096 26.3173 129.774 25.5233L127.537 23.2863C127.111 23.7705 126.607 24.1385 126.026 24.3902C125.445 24.6227 124.796 24.7389 124.08 24.7389C123.285 24.7389 122.588 24.5742 121.988 24.245C121.387 23.8964 120.923 23.4122 120.593 22.7924C120.469 22.537 120.37 22.2646 120.296 21.9752L130.558 21.9499C130.636 21.6206 130.684 21.3301 130.703 21.0783C130.742 20.8072 130.761 20.5457 130.761 20.2939C130.761 18.9576 130.461 17.7664 129.861 16.7206C129.28 15.6554 128.466 14.8225 127.42 14.2221C126.394 13.6024 125.203 13.2925 123.847 13.2925C122.472 13.2925 121.223 13.6217 120.099 14.2802C118.976 14.9194 118.085 15.7909 117.427 16.8949C116.788 17.9795 116.468 19.219 116.468 20.6135C116.468 22.0274 116.797 23.2863 117.456 24.3902C118.134 25.4942 119.044 26.3658 120.187 27.0049ZM120.299 19.1274C120.367 18.8706 120.456 18.63 120.564 18.4056C120.874 17.7858 121.31 17.3113 121.872 16.9821C122.433 16.6334 123.092 16.4591 123.847 16.4591C124.564 16.4591 125.164 16.6141 125.648 16.924C126.152 17.2145 126.53 17.6406 126.781 18.2022C126.912 18.4726 127.015 18.7745 127.092 19.1077L120.299 19.1274Z" fill="#BABABA"/>
<path fill-rule="evenodd" clip-rule="evenodd" d="M18.4306 36.081C28.1932 36.081 36.1074 28.1669 36.1074 18.4043C36.1074 8.64168 28.1932 0.727539 18.4306 0.727539C8.66805 0.727539 0.753906 8.64168 0.753906 18.4043C0.753906 28.1669 8.66805 36.081 18.4306 36.081ZM25.7503 7.58473C25.9601 7.76216 26.0809 8.02296 26.0809 8.29772L26.0805 11.8491L26.0809 12.0828L26.0805 12.1108V23.999C26.0805 26.0636 24.4068 27.7372 22.3422 27.7372C20.2776 27.7372 18.6039 26.0636 18.6039 23.999C18.6039 21.9343 20.2776 20.2605 22.3422 20.2605C23.0232 20.2605 23.6614 20.4426 24.2113 20.7607V13.186L14.8652 14.744V25.8681C14.8652 27.9327 13.1916 29.6064 11.127 29.6064C9.06231 29.6064 7.38867 27.9327 7.38867 25.8681C7.38867 23.8035 9.06231 22.1296 11.127 22.1296C11.8079 22.1296 12.4466 22.3118 12.9961 22.6299L12.9965 13.952L12.9961 13.7183L12.9965 13.6903V10.1669C12.9965 9.71015 13.3267 9.32018 13.7777 9.24502L24.9925 7.37588C25.2636 7.33071 25.5408 7.4071 25.7503 7.58473Z" fill="#BABABA"/>
</svg>
